# xmcd
#
# Track frame offsets:
#	150
#	35785
#	54407
#	75097
#	89637
#	115225
#	127437
#	153205
#	184555
#	199902
#	221925
#	248520
#	265237
#	284000
#	304890
#
# Disc length: 4302 seconds
#
# Revision: 3
# Processed by: cddbd v1.5.1PL0 Copyright (c) Steve Scherf et al.
# Submitted via: audiograbber 1.83.01
#
DISCID=de10cc0f
DTITLE=Various Artist - Ethnic Odysseey 2003 (Planet India)
DYEAR=2003
DGENRE=Ethnic
TTITLE0=Karunesh - Punjab (Chiller Twist Fruity Mix)
TTITLE1=Hooverphonic - Jackie's Delirioum
TTITLE2=Blend with Natacha Atlas - Duniya Mein Hum Aaye Hai To Geena Hi Padega
TTITLE3=Achanak - Akhi Billian
TTITLE4=Amarjit Ohanda [ADH] - Bhangra
TTITLE5=Bhangra Knights vs  Husan - Husan (Radio Edit)
TTITLE6=DJ Nasha - Holton Pe Aisi Baat
TTITLE7=Hatler vs  Deep Dive Corp - Delhi News (Deep Dive Version)
TTITLE8=Genetic Drugs - Lakshmi Mantra (Smart Edit)
TTITLE9=Vana Verouti - Cosmic Prayer (Nikko Patrellakis Cosmic Mix)
TTITLE10=MIDIval PunditZ - Night
TTITLE11=Thievery Corporation - Un Simple Histoire (A Simple History)
TTITLE12=Tantra - Universe Music
TTITLE13=Atex - Echo Of Wadi Sherez
TTITLE14=Abhiyit Pohankar - Piya Bavari
EXTD=
EXTT0=
EXTT1=
EXTT2=
EXTT3=
EXTT4=
EXTT5=
EXTT6=
EXTT7=
EXTT8=
EXTT9=
EXTT10=
EXTT11=
EXTT12=
EXTT13=
EXTT14=
PLAYORDER=
